<?xml version="1.0" encoding="utf-8"?>
<!-- Generator: Adobe Illustrator 18.0.0, SVG Export Plug-In . SVG Version: 6.00 Build 0)  -->
<!DOCTYPE svg PUBLIC "-//W3C//DTD SVG 1.1//EN" "http://www.w3.org/Graphics/SVG/1.1/DTD/svg11.dtd">
<svg version="1.1" id="Layer_1" xmlns="http://www.w3.org/2000/svg" xmlns:xlink="http://www.w3.org/1999/xlink" x="0px" y="0px"
	 viewBox="0 0 764 433.3" enable-background="new 0 0 764 433.3" xml:space="preserve">
<g>
	<path fill="#77C2EC" d="M20.4,160.2l-1.2-13.3l16.7-0.6l1.2,12.4L20.4,160.2z M45.8,258.6c0.4,4.4,0.9,8.6,1.6,12.6
		c0.7,3.9,1.7,7.6,3,10.8l-24-2l-4.6-84l18.2-1.4L45.8,258.6z M83.9,144l67-3.2l11.3,149l-31.8-2l-1.4-17.3
		c-2.3,0.4-4.5,0.8-6.5,1.3c-2,0.5-4.7,0.9-7.9,1.3c-7.1,0.4-12.3-1.5-15.4-5.6c-3.2-4.1-5.3-10.9-6.5-20.4l-4.3-56.9l34.6-2.9
		l-3.2-35.8l-35.2,3.2L83.9,144z"/>
	<path fill="#BEDB8D" d="M182.6,147.8c-3.5,1.5-6.6,3-9.4,4.5c-2.8,1.4-5.3,2.8-7.7,4.2l-0.9-7.8L182.6,147.8z M174.8,187.9
		c4.8-3.5,11-6.7,18.5-9.8c7.5-3.1,15.2-5,23.1-5.8c5.8-0.6,10.5-0.3,14.3,0.7c3.8,1.1,6.7,2.5,9,4.3c2.2,1.8,3.8,3.9,4.6,6.4
		c0.9,2.4,1.4,4.7,1.6,6.8l0.6,1.4c-16.2,1.5-30.3,4.5-42.4,9c-12.1,4.4-21.8,10.3-29.2,17.6l-7.2-49.1L174.8,187.9z M207.8,250
		c-0.4-4.4,0.4-8.3,2.5-11.5c2-3.3,5-6.1,9-8.4c3.9-2.3,8.6-4.1,13.9-5.3c5.3-1.2,11.1-2.2,17.5-2.7l1.4,16.5c0.4,1.5,0.5,3,0.3,4.3
		c-0.2,1.3-0.3,2.8-0.3,4.3c-1.3,5-4.2,9.4-8.5,13.1c-4.3,3.8-9.4,5.8-15.2,6.2c-5.2,0.6-9.8-0.5-13.7-3.2
		C210.6,260.6,208.3,256.1,207.8,250z M260.6,287.2l-10.1-0.6c1.2-1,2.4-2.2,3.6-3.6c1.2-1.4,2.4-2.7,3.3-3.9l1.2-0.6L260.6,287.2z
		 M295,199.5c-1-12.1-3.9-23-8.7-32.6c-4.8-9.6-12.4-16.9-22.8-21.9l36.7-1.7l4.9,144.9c-1.3-4.4-2.4-9.7-3.2-15.7
		c-0.8-6.1-1.3-12.4-1.7-18.9L295,199.5z"/>
	<path fill="#F7CE74" d="M409.9,289.8l-103.4,2.6l1.2-17.6l50,7.8l18.2-24.5c2.5-3.5,5-6.9,7.5-10.3c2.5-3.4,4.9-7,7.2-10.8l1.2,0.6
		c1,3.9,2.1,7.8,3.5,12c1.3,4.1,2.8,8.1,4.3,12L409.9,289.8z M307.7,274.2l8.4-120.7l27.4-0.9l25.7,54.3L307.7,274.2z M431.2,147.5
		l-13,17.6c-2.7,3.5-5.2,6.8-7.7,10.1c-2.4,3.3-5,6.8-7.7,10.7h-0.3c-1.5-3.8-3-7.8-4.5-12c-1.4-4.1-2.9-8.1-4.5-12l-4.6-11.8
		L431.2,147.5z M450,187l-4,74.5l-21.1-47.9L450,187z"/>
	<path fill="#E98956" d="M554.2,289.8l-103.4,2.6l1.2-17.6l50,7.8l18.2-24.5c2.5-3.5,5-6.9,7.5-10.3c2.5-3.4,4.9-7,7.2-10.8l1.2,0.6
		c1,3.9,2.1,7.8,3.5,12c1.3,4.1,2.8,8.1,4.3,12L554.2,289.8z M452,274.2l8.4-120.7l27.4-0.9l25.7,54.3L452,274.2z M575.6,147.5
		l-13,17.6c-2.7,3.5-5.2,6.8-7.7,10.1c-2.4,3.3-5,6.8-7.7,10.7H547c-1.5-3.8-3-7.8-4.5-12c-1.4-4.1-2.9-8.1-4.5-12l-4.6-11.8
		L575.6,147.5z M594.4,187l-4,74.5l-21.1-47.9L594.4,187z"/>
	<path fill="#9F8DB9" d="M635.1,148.9c-15.4,4.6-27.9,12.6-37.5,24v-26L635.1,148.9z M597.5,280.9c1.3,1.5,2.6,2.9,3.9,4.2
		c1.3,1.3,2.5,2.6,3.6,3.9h-7.5V280.9z M657.9,179.2c5.4-0.4,10.2,0.6,14.3,3c4.1,2.4,7.7,5.7,10.5,10c2.9,4.2,5.1,9,6.8,14.4
		c1.6,5.4,2.7,11,3.3,16.7c1.3,14.4-0.3,26.1-5.1,35.1c-4.7,9-12,13.9-21.8,14.9c-10.4,1-18.7-2.8-24.8-11.3
		c-6.2-8.5-9.9-19.4-11.3-32.9c-0.6-5.8-0.5-11.5,0.3-17.2c0.8-5.7,2.3-10.9,4.5-15.6c2.2-4.7,5.2-8.6,9-11.7
		C647.4,181.7,652.1,179.8,657.9,179.2z M739.6,200.3c-3.1-11-7.8-20.5-14.3-28.4c-6.5-8-14.4-14.5-23.8-19.5l38.1,2.6V200.3z
		 M716.8,289c5-4.6,9.5-9.9,13.6-15.7c4-5.9,7.1-12.5,9.2-19.8V289H716.8z"/>
	<path fill="#32ADE3" d="M156.8,219.4c-24.9-3.4-47.4-7.1-67.2-10.8l2.9,38.4c1.1,9.4,3.3,16.2,6.5,20.3c3.2,4.1,8.3,6,15.4,5.6
		c3.3-0.4,5.9-0.8,7.9-1.3c2-0.5,4.2-0.9,6.5-1.3l1.4,17.3l31.8,2L156.8,219.4z M47.4,271.2c-0.7-4-1.2-8.1-1.6-12.6l-5.4-60.3
		l-0.3-3.8l-11.8,0.9l-6.3,0.5l4.6,84l24,2C49,278.8,48,275.2,47.4,271.2z"/>
	<path fill="#89C540" d="M251.9,238.4l-0.8-9.1c-8.9-0.7-17.5-1.4-26-2.2c-2.1,0.9-4.1,1.8-5.9,2.9c-4,2.3-6.9,5.1-9,8.4
		c-2,3.3-2.8,7.1-2.5,11.5c0.6,6.1,2.8,10.6,6.8,13.3c3.9,2.7,8.5,3.7,13.7,3.2c5.8-0.4,10.8-2.4,15.1-6.2c4.3-3.7,7.2-8.1,8.5-13.1
		c0-1.5,0.1-3,0.3-4.3C252.4,241.4,252.3,240,251.9,238.4z M258.6,278.6l-1.2,0.6c-1,1.2-2.1,2.5-3.3,3.9c-1.3,1.4-2.5,2.6-3.6,3.6
		l10.1,0.6L258.6,278.6z M303.2,232.4c-1.7-0.1-3.4-0.2-5.1-0.2l2,21.2c0.4,6.6,1,12.9,1.7,18.9c0.8,6.1,1.8,11.3,3.2,15.7
		L303.2,232.4z"/>
	<path fill="#F2B11C" d="M433.5,233.2l12.4,28.3l1.6-28.8C442.8,232.9,438.2,233.1,433.5,233.2z M310.5,232.7l-2.9,41.5l37-40.5
		C333.1,233.5,321.7,233.2,310.5,232.7z M399.5,261.5c-1.5-3.9-3-7.9-4.3-12c-1.4-4.1-2.5-8.1-3.5-12l-1.2-0.6
		c-2.3,3.8-4.7,7.5-7.2,10.8c-2.5,3.4-5,6.8-7.5,10.3l-18.2,24.5l-49.9-7.8l-1.2,17.6l103.4-2.6L399.5,261.5z"/>
	<path fill="#DF1F28" d="M573.6,223.5l16.7,38l2.2-40.1C586.2,222.1,579.9,222.9,573.6,223.5z M454.9,232.4l-2.9,41.8l40-43.8
		C479.5,231.3,467.1,231.9,454.9,232.4z M543.8,261.5c-1.5-3.9-3-7.9-4.3-12c-1.4-4.1-2.5-8.1-3.5-12l-1.2-0.6
		c-2.3,3.8-4.7,7.5-7.2,10.8c-2.5,3.4-5,6.8-7.5,10.3L502,282.6l-49.9-7.8l-1.2,17.6l103.4-2.6L543.8,261.5z"/>
	<path fill="#69509A" d="M730.4,273.2c-4,5.9-8.6,11.1-13.6,15.7h22.8v-35.5C737.5,260.8,734.4,267.4,730.4,273.2z M739,198.4
		c0.2,0.6,0.4,1.3,0.6,1.9v-2C739.4,198.4,739.2,198.4,739,198.4z M692.8,223.4c-0.6-5.5-1.6-10.8-3.1-16c-20.3,3.5-40.4,6.5-60,9.2
		c-0.3,4.1-0.2,8.3,0.2,12.5c1.3,13.5,5.1,24.4,11.3,32.9c6.1,8.5,14.4,12.2,24.8,11.3c9.8-1,17.1-5.9,21.8-14.9
		C692.5,249.6,694.2,237.9,692.8,223.4z M601.4,285.1c-1.3-1.3-2.5-2.6-3.9-4.2v8.1h7.5C603.9,287.6,602.7,286.3,601.4,285.1z"/>
</g>
</svg>
